<svg width="24" height="24" viewBox="0 0 24 24" fill="none" xmlns="http://www.w3.org/2000/svg">
<g clip-path="url(#clip0_5880_8541)">
<path d="M17.9885 11L17.9886 19.5431C17.9934 19.9797 17.8533 20.4056 17.5903 20.7542C17.3273 21.1028 16.9561 21.3543 16.5349 21.4694C13.5452 22.1769 10.4318 22.1769 7.44212 21.4694C7.0209 21.3543 6.64973 21.1028 6.38669 20.7542C6.12365 20.4056 5.98358 19.9797 5.9884 19.5431L5.98849 11" stroke="#53565A" stroke-linecap="round" stroke-linejoin="round"/>
<path d="M18.0036 13L21.2287 12.2403C21.3603 12.2093 21.4843 12.1519 21.5932 12.0716C21.702 11.9912 21.7934 11.8897 21.8619 11.773C21.9303 11.6563 21.9744 11.527 21.9914 11.3928C22.0084 11.2586 21.9981 11.1223 21.9609 10.9922L20.7479 6.74665C20.5912 6.19806 20.3189 5.68934 19.9493 5.25465C19.5798 4.81997 19.1215 4.46937 18.6053 4.22639L16.8089 3.38086C16.276 3.13005 15.6943 3 15.1054 3H8.89399C8.30505 3 7.72338 3.13005 7.19052 3.38086L5.39411 4.22639C4.87789 4.46937 4.41962 4.81997 4.05006 5.25465C3.68051 5.68934 3.40822 6.19806 3.25148 6.74665L2.03848 10.9922C2.00132 11.1223 1.99093 11.2586 2.00794 11.3927C2.02496 11.5269 2.06902 11.6563 2.13747 11.773C2.20592 11.8896 2.29733 11.9912 2.40617 12.0715C2.51501 12.1519 2.63901 12.2093 2.77068 12.2403L5.99579 13" stroke="#53565A" stroke-linecap="round" stroke-linejoin="round"/>
<path d="M15.5 3.01987C15.5 3.41122 15.4229 3.79875 15.2732 4.16031C15.1234 4.52188 14.9039 4.85041 14.6271 5.12714C14.3504 5.40387 14.0219 5.62338 13.6603 5.77315C13.2988 5.92291 12.9112 6 12.5199 6H11.4801C11.0888 6 10.7012 5.92291 10.3397 5.77315C9.97812 5.62338 9.64959 5.40387 9.37286 5.12714C8.81398 4.56825 8.5 3.81025 8.5 3.01987" stroke="#53565A" stroke-linecap="round" stroke-linejoin="round"/>
</g>
<defs>
<clipPath id="clip0_5880_8541">
<rect width="24" height="24" fill="white"/>
</clipPath>
</defs>
</svg>
