<svg width="24" height="24" viewBox="0 0 24 24" fill="none" xmlns="http://www.w3.org/2000/svg">
<g clip-path="url(#clip0_5880_8549)">
<path d="M12.9876 14C13.8336 14 14.4016 14.745 14.4016 15.439C14.4016 16.847 12.0446 18 12.0016 18C11.9586 18 9.60156 16.847 9.60156 15.439C9.60156 14.745 10.1696 14 11.0156 14C11.4996 14 11.8176 14.226 12.0016 14.428C12.1856 14.226 12.5036 14 12.9876 14Z" stroke="#53565A" stroke-linecap="round" stroke-linejoin="round"/>
<path d="M12 12V14.43" stroke="#53565A" stroke-linecap="round" stroke-linejoin="round"/>
<path d="M12.0004 20.997C6.83336 20.997 2.58236 17.078 2.05636 12.051C1.99936 11.504 2.38536 11.009 2.93036 10.943C6.22036 10.542 8.65536 7.983 8.96536 3.902C9.00436 3.39 9.44736 3.002 9.96036 3.004L12.0004 3.01L14.0404 3.003C14.5544 3.001 14.9974 3.39 15.0354 3.902C15.3454 7.983 17.7804 10.541 21.0694 10.943C21.6154 11.01 22.0024 11.505 21.9444 12.053C21.4184 17.079 17.1664 20.997 12.0004 20.997Z" stroke="#53565A" stroke-linecap="round" stroke-linejoin="round"/>
<path d="M17.219 9.103C15.981 10.857 14.118 12 12 12" stroke="#53565A" stroke-linecap="round" stroke-linejoin="round"/>
<path d="M6.78125 9.103C8.01925 10.857 9.88225 12 12.0002 12" stroke="#53565A" stroke-linecap="round" stroke-linejoin="round"/>
</g>
<defs>
<clipPath id="clip0_5880_8549">
<rect width="24" height="24" fill="white"/>
</clipPath>
</defs>
</svg>
