<svg width="24" height="24" viewBox="0 0 24 24" fill="none" xmlns="http://www.w3.org/2000/svg">
<g clip-path="url(#clip0_5880_8599)">
<path d="M3 19.7305V21" stroke="#53565A" stroke-linecap="round" stroke-linejoin="round"/>
<path d="M13 13.5V12C13 11.2044 12.6839 10.4413 12.1213 9.87868C11.5587 9.31607 10.7956 9 10 9H7C6.20435 9 5.44129 9.31607 4.87868 9.87868C4.31607 10.4413 4 11.2044 4 12V13.5" stroke="#53565A" stroke-linecap="round" stroke-linejoin="round"/>
<path d="M14 19.7287V21" stroke="#53565A" stroke-linecap="round" stroke-linejoin="round"/>
<path d="M4.5 20H13C13.5304 20 14.0391 19.7893 14.4142 19.4142C14.7893 19.0391 15 18.5304 15 18V15C15 14.6022 14.842 14.2206 14.5607 13.9393C14.2794 13.658 13.8978 13.5 13.5 13.5H13C12.6022 13.5 12.2206 13.658 11.9393 13.9393C11.658 14.2206 11.5 14.6022 11.5 15V17H5.5V15C5.5 14.6022 5.34196 14.2206 5.06066 13.9393C4.77936 13.658 4.39782 13.5 4 13.5H3.5C3.10218 13.5 2.72064 13.658 2.43934 13.9393C2.15804 14.2206 2 14.6022 2 15V18C2 18.5304 2.21071 19.0391 2.58579 19.4142C2.96086 19.7893 3.46957 20 4 20H4.5Z" stroke="#53565A" stroke-linecap="round" stroke-linejoin="round"/>
<path d="M19 20V9.00001" stroke="#53565A" stroke-linecap="round" stroke-linejoin="round"/>
<path d="M20.5702 2H17.4286C17.2113 2 16.9999 2.07079 16.8264 2.20165C16.6529 2.33252 16.5268 2.51633 16.4671 2.72528L15.0385 7.72528C14.996 7.87411 14.9886 8.03077 15.0169 8.18294C15.0452 8.33511 15.1084 8.47863 15.2017 8.6022C15.2949 8.72577 15.4155 8.82601 15.554 8.89504C15.6926 8.96407 15.8452 9 16 9H21.9988C22.1536 9 22.3062 8.96407 22.4448 8.89504C22.5833 8.82601 22.7039 8.72577 22.7971 8.6022C22.8903 8.47863 22.9536 8.33511 22.9819 8.18294C23.0102 8.03077 23.0028 7.87411 22.9603 7.72528L21.5317 2.72528C21.472 2.51633 21.3459 2.33252 21.1724 2.20165C20.9989 2.07079 20.7875 2 20.5702 2Z" stroke="#53565A" stroke-linecap="round" stroke-linejoin="round"/>
</g>
<defs>
<clipPath id="clip0_5880_8599">
<rect width="24" height="24" fill="white"/>
</clipPath>
</defs>
</svg>
