<svg width="24" height="24" viewBox="0 0 24 24" fill="none" xmlns="http://www.w3.org/2000/svg">
<g clip-path="url(#clip0_5880_8610)">
<path d="M15.8916 10.853C15.7539 11.0328 15.5775 11.1792 15.3755 11.2816C15.1734 11.3839 14.951 11.4394 14.7246 11.444C14.4986 11.4381 14.2767 11.382 14.0751 11.2798C13.8734 11.1776 13.697 11.0318 13.5586 10.853" stroke="#53565A" stroke-linecap="round" stroke-linejoin="round"/>
<path d="M10.4424 10.853C10.3048 11.0327 10.1285 11.179 9.92669 11.2813C9.72486 11.3836 9.5026 11.4392 9.27637 11.444C9.05022 11.4381 8.82821 11.382 8.62639 11.2798C8.42456 11.1776 8.24797 11.0318 8.10938 10.853" stroke="#53565A" stroke-linecap="round" stroke-linejoin="round"/>
<path d="M12.0016 20.333C13.8274 20.3321 15.6023 19.7314 17.0533 18.6233C18.5043 17.5152 19.5511 15.9611 20.0326 14.2C20.5741 14.141 21.0747 13.8841 21.4384 13.4787C21.8021 13.0732 22.0033 12.5477 22.0033 12.003C22.0033 11.4583 21.8021 10.9328 21.4384 10.5274C21.0747 10.1219 20.5741 9.86501 20.0326 9.80601C19.5524 8.04405 18.506 6.48892 17.0547 5.3803C15.6035 4.27167 13.8279 3.67108 12.0016 3.67108C10.1754 3.67108 8.39982 4.27167 6.94857 5.3803C5.49731 6.48892 4.45092 8.04405 3.97064 9.80601C3.42916 9.86501 2.92854 10.1219 2.56484 10.5274C2.20115 10.9328 2 11.4583 2 12.003C2 12.5477 2.20115 13.0732 2.56484 13.4787C2.92854 13.8841 3.42916 14.141 3.97064 14.2C4.45218 15.9611 5.49896 17.5152 6.94999 18.6233C8.40101 19.7314 10.1759 20.3321 12.0016 20.333Z" stroke="#53565A" stroke-linecap="round" stroke-linejoin="round"/>
<path d="M14.2253 15.007C13.6096 15.5441 12.8203 15.84 12.0033 15.84C11.1862 15.84 10.3969 15.5441 9.78125 15.007" stroke="#53565A" stroke-linecap="round" stroke-linejoin="round"/>
<path d="M10.8867 7.19105C11.2095 7.4265 11.5982 7.55421 11.9977 7.55605C12.5058 7.54453 12.9892 7.3346 13.3444 6.9712C13.6997 6.60779 13.8986 6.11976 13.8986 5.61155C13.8986 5.10334 13.6997 4.61532 13.3444 4.25191C12.9892 3.8885 12.5058 3.67858 11.9977 3.66705" stroke="#53565A" stroke-linecap="round" stroke-linejoin="round"/>
</g>
<defs>
<clipPath id="clip0_5880_8610">
<rect width="24" height="24" fill="white"/>
</clipPath>
</defs>
</svg>
