<svg width="24" height="24" viewBox="0 0 24 24" fill="none" xmlns="http://www.w3.org/2000/svg">
<g clip-path="url(#clip0_5880_8643)">
<path d="M18.8857 12.5343L12.93 18.4901C12.5475 18.8726 12.2994 19.3688 12.2229 19.9043L12.005 21.4292C11.994 21.506 12.0011 21.5844 12.0257 21.658C12.0502 21.7316 12.0916 21.7986 12.1464 21.8534C12.2013 21.9083 12.2682 21.9497 12.3419 21.9742C12.4155 21.9988 12.4939 22.0058 12.5707 21.9949L14.0956 21.777C14.6311 21.7005 15.1274 21.4524 15.5099 21.0699L21.4656 15.1142C21.8077 14.7721 21.9999 14.3081 21.9999 13.8242C21.9999 13.3404 21.8077 12.8764 21.4656 12.5343C21.2962 12.3649 21.0951 12.2305 20.8738 12.1389C20.6524 12.0472 20.4152 12 20.1757 12C19.9361 12 19.6989 12.0472 19.4776 12.1389C19.2562 12.2305 19.0551 12.3649 18.8857 12.5343Z" stroke="#53565A" stroke-linecap="round" stroke-linejoin="round"/>
<path d="M9 9.99994H15" stroke="#53565A" stroke-linecap="round" stroke-linejoin="round"/>
<path d="M9 14.0001H11" stroke="#53565A" stroke-linecap="round" stroke-linejoin="round"/>
<path d="M9 21H6C5.73743 21.0001 5.47741 20.9484 5.2348 20.848C4.99219 20.7476 4.77173 20.6004 4.58601 20.4148C4.40029 20.2292 4.25295 20.0088 4.15241 19.7662C4.05186 19.5237 4.00007 19.2637 4 19.0011V5C3.99993 4.73743 4.05157 4.47741 4.15199 4.2348C4.2524 3.99219 4.39962 3.77173 4.58523 3.58601C4.77085 3.40029 4.99123 3.25296 5.23378 3.15241C5.47634 3.05186 5.73633 3.00007 5.9989 3H18C18.2626 2.99993 18.5226 3.05157 18.7652 3.15199C19.0078 3.2524 19.2283 3.39962 19.414 3.58523C19.5997 3.77085 19.747 3.99123 19.8476 4.23378C19.9481 4.47634 19.9999 4.73633 20 4.9989V9" stroke="#53565A" stroke-linecap="round" stroke-linejoin="round"/>
<path d="M3 8.00006H5.33" stroke="#53565A" stroke-linecap="round" stroke-linejoin="round"/>
<path d="M3 12H5.33" stroke="#53565A" stroke-linecap="round" stroke-linejoin="round"/>
<path d="M2.88281 15.9999H5.33281" stroke="#53565A" stroke-linecap="round" stroke-linejoin="round"/>
</g>
<defs>
<clipPath id="clip0_5880_8643">
<rect width="24" height="24" fill="white"/>
</clipPath>
</defs>
</svg>
