<svg width="24" height="24" viewBox="0 0 24 24" fill="none" xmlns="http://www.w3.org/2000/svg">
<g id="Group">
<path id="Path" d="M12 10.0001V7.90744L13.3823 7.13944C14.0722 6.75624 14.5 6.02917 14.5 5.24006C14.4183 3.92777 13.2929 2.92737 11.9801 3.00006C10.807 2.95138 9.76537 3.74433 9.5 4.88799" stroke="#53565A" stroke-linecap="round" stroke-linejoin="round"/>
<path id="Path_2" fill-rule="evenodd" clip-rule="evenodd" d="M7 16.5H17C17.5523 16.5 18 16.9477 18 17.5V21H6V17.5C6 16.9477 6.44772 16.5 7 16.5Z" stroke="#53565A" stroke-linecap="round" stroke-linejoin="round"/>
<path id="Path_3" d="M18.0002 18H19.2388C20.0156 18.0039 20.7018 17.4949 20.9236 16.7504C21.1453 16.006 20.8493 15.2044 20.197 14.7827L13.4785 10.4362C12.5788 9.8546 11.4216 9.8546 10.5218 10.4362L3.8034 14.7827C3.15104 15.2044 2.85507 16.006 3.0768 16.7504C3.29853 17.4949 3.9848 18.0039 4.7616 18H6.00018" stroke="#53565A" stroke-linecap="round" stroke-linejoin="round"/>
</g>
</svg>
