<?xml version="1.0" encoding="utf-8"?>
<!-- Generator: Adobe Illustrator 27.9.0, SVG Export Plug-In . SVG Version: 6.00 Build 0)  -->
<svg version="1.1" id="Layer_1" xmlns="http://www.w3.org/2000/svg" xmlns:xlink="http://www.w3.org/1999/xlink" x="0px" y="0px"
	 viewBox="0 0 412.48 113.39" style="enable-background:new 0 0 412.48 113.39;" xml:space="preserve">
<style type="text/css">
	.st0{fill:#00B26B;}
</style>
<g>
	<path class="st0" d="M303.35,97.23c-32.27,0-64.54,0-96.81,0c-1.14,0-2.28,0.01-3.42-0.01c-1.02-0.02-1.43-0.42-1.51-1.44
		c-0.02-0.26-0.01-0.53-0.01-0.8c0-19.29,0-38.59,0-57.88c0-0.27-0.01-0.53,0-0.8c0.06-1.14,0.3-1.38,1.44-1.42
		c0.49-0.02,0.99-0.01,1.48-0.01c44.1,0,88.21,0.02,132.31-0.01c17.8-0.01,35.61-0.13,53.41-0.15c3.97,0,7.69,0.92,10.68,3.79
		c2.85,2.74,4.39,6.04,4.39,10.02c0,15.38,0,30.76,0,46.14c0,0.38,0.03,0.76-0.02,1.14c-0.13,0.93-0.56,1.33-1.5,1.39
		c-0.53,0.03-1.06,0.02-1.6,0.02C369.26,97.23,336.31,97.23,303.35,97.23z M270.06,54.18c-0.76-0.66-1.37-1.23-2.02-1.75
		c-2.69-2.16-5.68-3.26-9.2-2.69c-6.57,1.06-10.41,5.72-10.58,12.29c-0.15,5.96-0.04,11.92-0.02,17.88c0,0.52,0.08,1.06,0.2,1.57
		c0.29,1.17,0.92,1.68,2.07,1.75c1.23,0.07,2.04-0.36,2.44-1.43c0.19-0.52,0.25-1.11,0.25-1.66c0.02-5.13-0.05-10.25,0.04-15.38
		c0.03-1.95,0.03-3.94,0.8-5.82c0.88-2.14,2.32-3.65,4.61-4.2c4.67-1.11,8.88,2.1,8.96,6.95c0.09,5.85,0.04,11.7,0.07,17.54
		c0,0.87,0.1,1.74,0.18,2.6c0.07,0.76,0.54,1.14,1.3,1.16c0.61,0.02,1.22,0.02,1.83,0c1.13-0.03,1.61-0.48,1.62-1.59
		c0.02-2.38-0.01-4.76,0.02-7.15c0.05-4.51,0.06-9.03,0.23-13.54c0.15-3.89,4.28-6.92,8.07-6.09c3.94,0.86,6.02,3.38,6.08,7.53
		c0.08,6.07-0.04,12.15-0.04,18.22c0,0.78-0.07,1.85,0.81,2.07c1.05,0.26,2.26,0.29,3.3,0.03c0.96-0.24,0.94-1.35,0.94-2.24
		c0-5.43,0.04-10.86-0.02-16.29c-0.02-1.7-0.1-3.43-0.47-5.08c-1.21-5.47-6.01-9.29-11.86-9.27c-2.97,0.01-5.64,1.11-7.9,3.1
		C271.24,53.2,270.68,53.66,270.06,54.18z M351.98,70.02c-0.06,0.32-0.06,0.48-0.11,0.61c-2.21,5.63-7.35,8.13-13.01,7.3
		c-5.92-0.86-10.21-6.16-9.91-12.05c0.24-4.57,2.26-8.01,6.26-10.14c4-2.13,8.03-1.99,11.9,0.45c1.95,1.23,3.27,3.01,4.39,5
		c1.09,1.95,2.43,2.35,4.4,1.49c0.52-0.23,0.84-0.5,0.61-1.12c-0.41-1.13-0.69-2.34-1.25-3.4c-2.7-5.13-10.21-10.03-18.01-8.2
		c-9.22,2.17-14.94,11.62-12.38,20.72c2.25,7.97,10.32,13.12,18.51,11.89c7.33-1.1,13.51-7.34,13.93-15.6
		c0.06-1.26-0.14-1.47-1.28-1.49c-4.33-0.07-8.67-0.13-13-0.18c-2.04-0.02-2.37,0.28-2.65,2.24c-0.23,1.59,0.43,2.4,2.02,2.45
		c0.38,0.01,0.76,0,1.14,0C346.32,70.03,349.09,70.02,351.98,70.02z M319.67,71.52C319.67,71.52,319.67,71.52,319.67,71.52
		c0-2.05,0.04-4.1-0.01-6.15c-0.05-1.97,0.01-3.96-0.32-5.89c-1.26-7.55-10-12.64-17.81-8.23c-4.33,2.45-6.14,6.4-6.23,11.16
		c-0.11,5.99-0.03,11.99-0.02,17.99c0,0.56,0.05,1.16,0.25,1.67c0.15,0.37,0.55,0.77,0.93,0.87c0.6,0.17,1.28,0.19,1.91,0.13
		c1.5-0.15,1.88-0.61,1.88-2.13c0-2.66,0-5.31,0-7.97c0-1.8,0.45-2.27,2.31-2.25c1.48,0.02,2.96,0.16,4.43,0.15
		c1.86-0.01,3.72-0.14,5.57-0.15c1.7-0.02,2.15,0.48,2.15,2.18c-0.01,2.35-0.05,4.71-0.01,7.06c0.05,2.73,0.22,2.86,2.97,2.83
		c1.58-0.02,1.97-0.38,1.97-1.93C319.68,77.74,319.67,74.63,319.67,71.52z"/>
	<path d="M7.13,13.87c0.55,0,0.96,0,1.37,0c8.41,0,16.82,0.05,25.23-0.01c8.3-0.06,13.19,5.44,14.27,12.58
		c0.18,1.2,0.23,2.42,0.24,3.63c0.02,5.55,0.04,11.09-0.01,16.64c-0.01,1.28-0.21,2.58-0.52,3.82c-0.56,2.24-1.75,4.11-3.89,5.48
		c0.19,0.1,0.28,0.17,0.39,0.2c5.27,1.46,8.05,5.15,9.23,10.26c0.23,0.99,0.37,2.03,0.37,3.04c0.01,5.16,0.12,10.34-0.1,15.49
		c-0.23,5.48-3.03,9.33-8.21,11.37c-3.19,1.26-6.52,1.77-9.91,2.02c-4.63,0.34-9.28,0.41-13.89-0.23c-2.17-0.3-4.36-0.74-6.43-1.45
		c-4.88-1.66-7.28-5.37-7.88-10.33c-0.19-1.54-0.27-3.1-0.27-4.66C7.13,59.65,7.13,37.58,7.13,15.52
		C7.13,15.02,7.13,14.53,7.13,13.87z M15.67,62.28c-0.05,0.28-0.1,0.43-0.1,0.57c0.01,6.98-0.04,13.97,0.07,20.95
		c0.06,4.08,1.71,5.87,5.72,6.74c0.26,0.06,0.52,0.13,0.78,0.14c3.68,0.14,7.36,0.43,11.04,0.37c2.56-0.05,5.16-0.4,7.66-0.95
		c2.96-0.65,4.35-2.4,4.45-5.41c0.14-3.9,0.1-7.81,0.11-11.72c0-1.4,0-2.81-0.14-4.2c-0.33-3.38-2.35-5.69-5.47-6.29
		c-0.85-0.16-1.74-0.19-2.61-0.19c-6.77-0.01-13.54-0.01-20.31-0.01C16.49,62.28,16.08,62.28,15.67,62.28z M15.62,54.74
		c0.21,0.06,0.28,0.1,0.35,0.1c5.59,0.01,11.18,0.1,16.77-0.02c3.98-0.08,6.27-2.27,6.9-6.23c0.12-0.75,0.18-1.51,0.18-2.26
		c0.02-3.95,0.01-7.9,0.01-11.84c0-1.75,0.05-3.49-0.01-5.24c-0.17-5.01-2.71-7.99-8.04-7.9c-4.29,0.07-8.59-0.1-12.88-0.16
		c-1.09-0.01-2.17,0-3.27,0C15.62,32.48,15.62,43.59,15.62,54.74z"/>
	<path d="M99.53,95.02c-3.63,0.97-7.09,1.97-10.59,2.79c-2.74,0.64-5.56,1-8.38,0.72c-5.97-0.59-10.31-4.23-11.89-10.04
		c-0.47-1.74-0.75-3.58-0.76-5.38c-0.06-15.49-0.03-30.98-0.03-46.48c0-0.41,0-0.82,0-1.29c0.48-0.02,0.85-0.05,1.22-0.05
		c6.85,0,13.7-0.03,20.54,0.01c3.83,0.02,7.39,0.95,10.35,3.51c2.83,2.45,4.39,5.66,4.86,9.28c0.47,3.6,0.61,7.25,0.82,10.89
		c0.48,8.37,0.9,16.74,1.39,25.11c0.27,4.66,0.65,9.31,0.98,13.96c0.01,0.15-0.02,0.29-0.04,0.54c-2.57,0.31-5.12,0.62-7.8,0.94
		C99.97,97.97,99.74,96.46,99.53,95.02z M76.31,42.82c0,0.53,0,0.94,0,1.35c0,12.75,0,25.51,0,38.26c0,0.46,0.01,0.91,0.04,1.37
		c0.26,4.85,3.16,7.52,8,7.31c3.78-0.16,7.45-0.98,11.07-2.01c1.12-0.32,2.22-0.69,3.34-1.04c-0.09-1.8-0.17-3.47-0.26-5.13
		c-0.38-7.27-0.76-14.54-1.16-21.81c-0.2-3.71-0.36-7.43-0.67-11.13c-0.36-4.2-2.49-6.48-6.41-7.11c-0.15-0.02-0.3-0.05-0.45-0.05
		C85.37,42.82,80.93,42.82,76.31,42.82z"/>
	<path d="M130.53,97.63c-2.91,0-5.64,0-8.42,0c0-20.77,0-41.49,0-62.29c0.32-0.02,0.61-0.05,0.9-0.05c7.65,0,15.3-0.03,22.95,0.01
		c3.54,0.02,6.85,0.89,9.71,3.11c3.29,2.55,4.83,6.06,5.4,10.07c0.18,1.27,0.23,2.57,0.23,3.86c0.02,14.62,0.01,29.25,0.01,43.87
		c0,0.45,0,0.89,0,1.41c-2.83,0-5.55,0-8.43,0c0-0.46,0-0.9,0-1.33c0-14.78,0.02-29.55-0.03-44.33c0-1.42-0.2-2.89-0.6-4.26
		c-0.87-3.01-3.09-4.76-6.44-4.85c-5.05-0.13-10.11-0.03-15.28-0.03C130.53,61.07,130.53,79.29,130.53,97.63z"/>
	<path d="M177.18,35.35c2.83,0,5.56,0,8.36,0c0,20.76,0,41.47,0,62.25c-2.79,0-5.54,0-8.36,0
		C177.18,76.85,177.18,56.15,177.18,35.35z"/>
	<path d="M176.86,22.2c0-2.78,0-5.49,0-8.27c3.03,0,6.01,0,9.04,0c0,2.76,0,5.47,0,8.27C182.93,22.2,179.96,22.2,176.86,22.2z"/>
	<path class="st0" d="M306.97,65.78c-1.86,0-3.72-0.01-5.59,0c-0.49,0-0.94-0.04-1.01-0.65c-0.41-3.69-0.12-7.32,3.67-9.65
		c3.71-2.28,8.77-0.11,9.96,3.43c0.48,1.42,0.75,2.93,0.88,4.42c0.16,1.79-0.47,2.36-2.32,2.4c-1.86,0.04-3.72,0.01-5.58,0.01
		C306.97,65.75,306.97,65.76,306.97,65.78z"/>
</g>
</svg>
