<svg width="24" height="24" viewBox="0 0 24 24" fill="none" xmlns="http://www.w3.org/2000/svg">
<g clip-path="url(#clip0_7350_3089)">
<path d="M7.5 3H16.504C17.0944 3 17.6791 3.11629 18.2245 3.34224C18.77 3.56818 19.2657 3.89936 19.6832 4.31685C20.1006 4.73434 20.4318 5.22998 20.6578 5.77546C20.8837 6.32094 21 6.90558 21 7.496V16.505C20.9997 17.6972 20.5259 18.8406 19.6828 19.6835C18.8397 20.5265 17.6962 21 16.504 21H7.496C6.30359 21 5.16001 20.5263 4.31685 19.6832C3.47368 18.84 3 17.6964 3 16.504V7.5C3 6.30653 3.47411 5.16193 4.31802 4.31802C5.16193 3.47411 6.30653 3 7.5 3Z" stroke="#53565A" stroke-linecap="round" stroke-linejoin="round"/>
<path d="M10.0939 15.491L9.28185 12.817L6.95585 12.091C6.89725 12.0731 6.84573 12.0372 6.8085 11.9885C6.77127 11.9398 6.75018 11.8807 6.7482 11.8195C6.74622 11.7582 6.76343 11.6979 6.79744 11.6469C6.83144 11.5959 6.88054 11.5568 6.93786 11.535L15.7889 8.12104C15.8631 8.09263 15.9437 8.08473 16.0221 8.09818C16.1004 8.11163 16.1738 8.14593 16.2343 8.19748C16.2949 8.24904 16.3404 8.31594 16.3662 8.39117C16.392 8.4664 16.3971 8.54718 16.3809 8.62504L14.8939 15.633C14.874 15.7276 14.8306 15.8156 14.7678 15.889C14.705 15.9624 14.6248 16.0188 14.5344 16.0531C14.4441 16.0874 14.3466 16.0984 14.2509 16.0851C14.1552 16.0718 14.0644 16.0346 13.9869 15.977L11.8749 14.417L10.6299 15.629C10.5899 15.6675 10.5407 15.6952 10.4871 15.7093C10.4334 15.7234 10.377 15.7236 10.3233 15.7097C10.2696 15.6959 10.2203 15.6686 10.1801 15.6303C10.1399 15.592 10.1103 15.5441 10.0939 15.491Z" stroke="#53565A" stroke-linecap="round" stroke-linejoin="round"/>
</g>
<defs>
<clipPath id="clip0_7350_3089">
<rect width="24" height="24" fill="white"/>
</clipPath>
</defs>
</svg>
