<svg width="24" height="24" viewBox="0 0 24 24" fill="none" xmlns="http://www.w3.org/2000/svg">
<g clip-path="url(#clip0_7350_3092)">
<path d="M7.5 3H16.504C17.0944 3 17.6791 3.11629 18.2245 3.34224C18.77 3.56818 19.2657 3.89936 19.6832 4.31685C20.1006 4.73434 20.4318 5.22998 20.6578 5.77546C20.8837 6.32094 21 6.90558 21 7.496V16.505C20.9997 17.6972 20.5259 18.8406 19.6828 19.6835C18.8397 20.5265 17.6962 21 16.504 21H7.496C6.30359 21 5.16001 20.5263 4.31685 19.6832C3.47368 18.84 3 17.6964 3 16.504V7.5C3 6.30653 3.47411 5.16193 4.31802 4.31802C5.16193 3.47411 6.30653 3 7.5 3Z" stroke="#53565A" stroke-linecap="round" stroke-linejoin="round"/>
<path d="M17.05 10.55C17.05 14.75 14.65 17.75 10.45 17.75C8.05 17.75 7.088 16.497 6.25 15.35M6.25 15.35C6.269 15.347 8.05 14.75 8.05 14.75C6.046 12.724 5.894 9.72305 7.45 7.55005C8.188 8.92305 9.566 10.189 11.05 10.55C11.107 8.81705 12.283 7.55005 14.05 7.55005C15.253 7.55005 15.961 8.00905 16.45 8.75005H18.25L17.05 10.55" stroke="#53565A" stroke-linecap="round" stroke-linejoin="round"/>
</g>
<defs>
<clipPath id="clip0_7350_3092">
<rect width="24" height="24" fill="white"/>
</clipPath>
</defs>
</svg>
