<svg width="24" height="24" viewBox="0 0 24 24" fill="none" xmlns="http://www.w3.org/2000/svg">
<path fill-rule="evenodd" clip-rule="evenodd" d="M7.496 3H16.505C17.0954 3 17.68 3.1163 18.2254 3.34226C18.7708 3.56821 19.2664 3.8994 19.6838 4.31691C20.1012 4.73441 20.4323 5.23006 20.6581 5.77553C20.884 6.321 21.0001 6.90562 21 7.496V16.505C21 17.0954 20.8837 17.68 20.6577 18.2254C20.4318 18.7708 20.1006 19.2664 19.6831 19.6838C19.2656 20.1012 18.7699 20.4323 18.2245 20.6581C17.679 20.884 17.0944 21.0001 16.504 21H7.496C6.90554 21.0001 6.32084 20.8839 5.7753 20.658C5.22976 20.4321 4.73407 20.101 4.31656 19.6834C3.89904 19.2659 3.56787 18.7702 3.34197 18.2247C3.11607 17.6792 2.99987 17.0945 3 16.504V7.496C2.99987 6.90554 3.11607 6.32084 3.34197 5.7753C3.56787 5.22976 3.89904 4.73407 4.31656 4.31656C4.73407 3.89904 5.22976 3.56787 5.7753 3.34197C6.32084 3.11607 6.90554 2.99987 7.496 3Z" stroke="#53565A" stroke-linecap="round" stroke-linejoin="round"/>
<path d="M16.9489 6.71296C16.9025 6.70952 16.8558 6.71572 16.8119 6.73116C16.7679 6.74661 16.7276 6.77096 16.6936 6.80271C16.6595 6.83445 16.6323 6.8729 16.6138 6.91563C16.5953 6.95836 16.5858 7.00447 16.5859 7.05104C16.5861 7.09761 16.5958 7.14366 16.6146 7.18628C16.6334 7.2289 16.6608 7.26719 16.695 7.29873C16.7293 7.33027 16.7697 7.35439 16.8137 7.36957C16.8578 7.38475 16.9045 7.39067 16.9509 7.38696C17.0358 7.38017 17.115 7.34159 17.1726 7.27894C17.2303 7.21629 17.2622 7.13418 17.2619 7.04903C17.2617 6.96388 17.2293 6.88197 17.1713 6.81966C17.1132 6.75735 17.0338 6.71925 16.9489 6.71296Z" stroke="#53565A" stroke-linecap="round" stroke-linejoin="round"/>
<path fill-rule="evenodd" clip-rule="evenodd" d="M14.546 9.454C14.8803 9.78835 15.1456 10.1853 15.3265 10.6221C15.5075 11.059 15.6006 11.5272 15.6006 12C15.6006 12.4728 15.5075 12.941 15.3265 13.3779C15.1456 13.8147 14.8803 14.2117 14.546 14.546C14.2117 14.8803 13.8147 15.1456 13.3779 15.3265C12.941 15.5075 12.4728 15.6006 12 15.6006C11.5272 15.6006 11.059 15.5075 10.6221 15.3265C10.1853 15.1456 9.78835 14.8803 9.454 14.546C8.77876 13.8708 8.39941 12.9549 8.39941 12C8.39941 11.0451 8.77876 10.1292 9.454 9.454C10.1292 8.77876 11.0451 8.39941 12 8.39941C12.9549 8.39941 13.8708 8.77876 14.546 9.454Z" stroke="#53565A" stroke-linecap="round" stroke-linejoin="round"/>
</svg>
